<?xml version="1.0" encoding="UTF-8"?>
<!DOCTYPE svg PUBLIC "-//W3C//DTD SVG 1.1//EN" "http://www.w3.org/Graphics/SVG/1.1/DTD/svg11.dtd">
<svg xmlns="http://www.w3.org/2000/svg" version="1.1" width="1280px" height="720px" style="shape-rendering:geometricPrecision; text-rendering:geometricPrecision; image-rendering:optimizeQuality; fill-rule:evenodd; clip-rule:evenodd" xmlns:xlink="http://www.w3.org/1999/xlink">
<g><path style="opacity:1" fill="#fefefe" d="M -0.5,-0.5 C 426.167,-0.5 852.833,-0.5 1279.5,-0.5C 1279.5,239.5 1279.5,479.5 1279.5,719.5C 852.833,719.5 426.167,719.5 -0.5,719.5C -0.5,479.5 -0.5,239.5 -0.5,-0.5 Z"/></g>
<g><path style="opacity:1" fill="#131313" d="M 840.5,252.5 C 861.044,250.631 867.877,259.297 861,278.5C 856.489,283.757 852.156,283.757 848,278.5C 840.926,284.78 836.426,283.447 834.5,274.5C 834.787,267.881 837.954,263.547 844,261.5C 846.406,261.703 848.406,262.703 850,264.5C 850.71,263.027 851.876,262.36 853.5,262.5C 852.405,267.464 851.905,272.464 852,277.5C 855.408,279.223 857.741,278.223 859,274.5C 862.03,258.248 855.53,252.414 839.5,257C 830.853,262.928 827.686,271.095 830,281.5C 832.375,287.194 836.709,289.861 843,289.5C 846.49,289.001 849.99,288.668 853.5,288.5C 853.64,290.124 852.973,291.29 851.5,292C 830.674,295.509 822.507,287.009 827,266.5C 829.713,259.956 834.213,255.289 840.5,252.5 Z"/></g>
<g><path style="opacity:1" fill="#151515" d="M 890.5,252.5 C 891.833,252.5 893.167,252.5 894.5,252.5C 894.5,254.167 894.5,255.833 894.5,257.5C 890.065,258.078 888.732,256.411 890.5,252.5 Z"/></g>
<g><path style="opacity:1" fill="#141414" d="M 869.5,262.5 C 870.833,262.5 872.167,262.5 873.5,262.5C 873.5,260.5 873.5,258.5 873.5,256.5C 874.568,255.566 875.901,255.232 877.5,255.5C 877.5,257.5 877.5,259.5 877.5,261.5C 879.527,261.338 881.527,261.505 883.5,262C 884.833,263 884.833,264 883.5,265C 881.527,265.495 879.527,265.662 877.5,265.5C 877.334,270.844 877.501,276.177 878,281.5C 879.427,283.787 881.261,284.12 883.5,282.5C 884.856,285.659 883.69,286.992 880,286.5C 877.296,286.815 875.296,285.815 874,283.5C 873.501,277.509 873.334,271.509 873.5,265.5C 872.167,265.5 870.833,265.5 869.5,265.5C 869.5,264.5 869.5,263.5 869.5,262.5 Z"/></g>
<g><path style="opacity:1" fill="#747474" d="M 873.5,256.5 C 873.5,258.5 873.5,260.5 873.5,262.5C 872.167,262.5 870.833,262.5 869.5,262.5C 870.209,261.596 871.209,261.263 872.5,261.5C 872.216,259.585 872.549,257.919 873.5,256.5 Z"/></g>
<g><path style="opacity:1" fill="#1b1b1b" d="M 902.5,261.5 C 903.5,261.5 904.5,261.5 905.5,261.5C 905.343,262.873 905.51,264.207 906,265.5C 913.004,259.569 918.671,260.569 923,268.5C 924.347,274.598 923.18,280.098 919.5,285C 915.219,287.109 911.052,286.942 907,284.5C 906.501,288.152 906.335,291.818 906.5,295.5C 904.833,295.5 903.167,295.5 901.5,295.5C 901.189,284.086 901.523,272.752 902.5,261.5 Z"/></g>
<g><path style="opacity:1" fill="#141414" d="M 933.5,261.5 C 936.187,261.336 938.854,261.503 941.5,262C 943.421,263.241 943.754,264.741 942.5,266.5C 940.043,264.775 937.377,264.275 934.5,265C 933.167,267 933.167,269 934.5,271C 938.037,272.281 941.204,274.114 944,276.5C 944.982,280.563 943.815,283.729 940.5,286C 937.167,286.667 933.833,286.667 930.5,286C 928.503,284.847 928.17,283.347 929.5,281.5C 932.208,283.436 935.208,283.936 938.5,283C 941.167,281 941.167,279 938.5,277C 934.483,275.969 931.317,273.802 929,270.5C 928.053,266.279 929.553,263.279 933.5,261.5 Z"/></g>
<g><path style="opacity:1" fill="#222222" d="M 890.5,261.5 C 891.822,261.33 892.989,261.663 894,262.5C 894.5,270.493 894.666,278.493 894.5,286.5C 892.833,286.5 891.167,286.5 889.5,286.5C 889.198,278.082 889.531,269.748 890.5,261.5 Z"/></g>
<g><path style="opacity:1" fill="#f3f3f3" d="M 842.5,265.5 C 844.199,265.34 845.866,265.506 847.5,266C 848.728,269.174 848.561,272.341 847,275.5C 843.199,279.83 840.366,279.497 838.5,274.5C 838.696,270.884 840.029,267.884 842.5,265.5 Z"/></g>
<g><path style="opacity:1" fill="#f7f7f7" d="M 910.5,265.5 C 912.527,265.338 914.527,265.505 916.5,266C 918.496,270.271 918.996,274.771 918,279.5C 914.521,284.757 910.854,284.757 907,279.5C 906.333,275.833 906.333,272.167 907,268.5C 908.145,267.364 909.312,266.364 910.5,265.5 Z"/></g>
<g><path style="opacity:1" fill="#030303" d="M 718.5,282.5 C 734.8,280.313 750.134,283.146 764.5,291C 766.049,292.214 767.215,293.714 768,295.5C 768.974,301.187 768.474,306.687 766.5,312C 765.167,312.667 763.833,312.667 762.5,312C 749.584,303.938 735.584,300.938 720.5,303C 708.121,306.59 702.954,314.756 705,327.5C 708.943,335.404 715.109,340.904 723.5,344C 735.868,348.565 747.868,353.898 759.5,360C 774.106,371.487 778.939,386.321 774,404.5C 770.386,416.446 762.886,424.946 751.5,430C 745.656,432.294 739.656,433.961 733.5,435C 715.58,437.761 698.58,435.094 682.5,427C 680.083,425.337 678.25,423.171 677,420.5C 676.333,415.5 676.333,410.5 677,405.5C 678.305,402.694 680.472,401.86 683.5,403C 697.323,412.831 712.657,416.831 729.5,415C 748.049,410.825 753.882,399.992 747,382.5C 742.654,377.826 737.487,374.326 731.5,372C 719.377,367.627 707.71,362.294 696.5,356C 677.938,340.229 674.771,321.729 687,300.5C 695.433,290.705 705.933,284.705 718.5,282.5 Z"/></g>
<g><path style="opacity:1" fill="#7e7e7e" d="M 584.5,229.5 C 605.936,227.189 625.936,231.356 644.5,242C 654.513,248.749 657.346,257.916 653,269.5C 652.044,270.894 650.711,271.561 649,271.5C 641.641,267.234 634.141,263.067 626.5,259C 606.149,249.791 586.149,250.457 566.5,261C 550.518,274.369 541.351,291.535 539,312.5C 535.935,333.896 537.602,354.896 544,375.5C 557.148,404.566 579.648,416.399 611.5,411C 624.812,408.009 636.812,402.343 647.5,394C 649.769,393.242 651.936,393.409 654,394.5C 656.22,401.638 655.886,408.638 653,415.5C 639.808,426.458 624.641,432.958 607.5,435C 549.063,438.234 516.563,410.734 510,352.5C 506.175,323.634 510.842,296.3 524,270.5C 537.864,247.488 558.03,233.821 584.5,229.5 Z"/></g>
</svg>
